{
  "accessors": [
    {
      "bufferView": 2,
      "componentType": 5126,
      "count": 17777,
      "max": [
        2.177220106124878,
        0.09055200219154358,
        0.576911985874176
      ],
      "min": [
        0.056046001613140106,
        -0.009758000262081623,
        -1.3470100164413452
      ],
      "type": "VEC3"
    },
    {
      "bufferView": 2,
      "byteOffset": 213324,
      "componentType": 5126,
      "count": 17777,
      "max": [
        0.9999997615814209,
        0.999998927116394,
        1.0
      ],
      "min": [
        -1.0,
        -0.9999997615814209,
        -1.0
      ],
      "type": "VEC3"
    },
    {
      "bufferView": 3,
      "componentType": 5126,
      "count": 17777,
      "max": [
        0.9999983906745911,
        1.0,
        1.0,
        1.0
      ],
      "min": [
        -0.9999997615814209,
        -1.0,
        -1.0,
        -1.0
      ],
      "type": "VEC4"
    },
    {
      "bufferView": 1,
      "componentType": 5126,
      "count": 17777,
      "max": [
        0.9951850175857544,
        0.9952200055122375
      ],
      "min": [
        0.0011879999656230211,
        0.0011879999656230211
      ],
      "type": "VEC2"
    },
    {
      "bufferView": 0,
      "componentType": 5125,
      "count": 73422,
      "type": "SCALAR"
    },
    {
      "bufferView": 2,
      "byteOffset": 426648,
      "componentType": 5126,
      "count": 7607,
      "max": [
        1.8828500509262085,
        0.11503300070762634,
        0.576911985874176
      ],
      "min": [
        0.3920759856700897,
        0.010509000159800053,
        -1.3470100164413452
      ],
      "type": "VEC3"
    },
    {
      "bufferView": 2,
      "byteOffset": 517932,
      "componentType": 5126,
      "count": 7607,
      "max": [
        0.9999998807907104,
        0.9999974966049194,
        0.9999986886978149
      ],
      "min": [
        -1.0,
        -0.9999969005584717,
        -0.999995231628418
      ],
      "type": "VEC3"
    },
    {
      "bufferView": 3,
      "byteOffset": 284432,
      "componentType": 5126,
      "count": 7607,
      "max": [
        0.9999978542327881,
        0.9867836833000183,
        0.9999983310699463,
        1.0
      ],
      "min": [
        -0.9999995231628418,
        -0.98431396484375,
        -0.9999998211860657,
        -1.0
      ],
      "type": "VEC4"
    },
    {
      "bufferView": 1,
      "byteOffset": 142216,
      "componentType": 5126,
      "count": 7607,
      "max": [
        0.9952149987220764,
        0.9951670169830322
      ],
      "min": [
        0.0011879999656230211,
        0.0011879999656230211
      ],
      "type": "VEC2"
    },
    {
      "bufferView": 0,
      "byteOffset": 293688,
      "componentType": 5125,
      "count": 29508,
      "type": "SCALAR"
    }
  ],
  "asset": {
    "extras": {
      "author": "yimmyramiro (https://sketchfab.com/yimmyramiro)",
      "license": "CC-BY-4.0 (http://creativecommons.org/licenses/by/4.0/)",
      "source": "https://sketchfab.com/3d-models/letras-neon-d72f04926e334bb79e4ffa43fae59ead",
      "title": "Letras Neon"
    },
    "generator": "Sketchfab-12.68.0",
    "version": "2.0"
  },
  "bufferViews": [
    {
      "buffer": 0,
      "byteLength": 411720,
      "name": "floatBufferViews",
      "target": 34963
    },
    {
      "buffer": 0,
      "byteLength": 203072,
      "byteOffset": 411720,
      "byteStride": 8,
      "name": "floatBufferViews",
      "target": 34962
    },
    {
      "buffer": 0,
      "byteLength": 609216,
      "byteOffset": 614792,
      "byteStride": 12,
      "name": "floatBufferViews",
      "target": 34962
    },
    {
      "buffer": 0,
      "byteLength": 406144,
      "byteOffset": 1224008,
      "byteStride": 16,
      "name": "floatBufferViews",
      "target": 34962
    }
  ],
  "buffers": [
    {
      "byteLength": 1630152,
      "uri": "scene.bin"
    }
  ],
  "images": [
    {
      "uri": "textures/Color_baseColor.png"
    },
    {
      "uri": "textures/Color_metallicRoughness.png"
    },
    {
      "uri": "textures/Color_emissive.png"
    },
    {
      "uri": "textures/Color_normal.png"
    },
    {
      "uri": "textures/Nocolor_baseColor.png"
    },
    {
      "uri": "textures/Nocolor_metallicRoughness.png"
    },
    {
      "uri": "textures/Nocolor_normal.png"
    }
  ],
  "materials": [
    {
      "doubleSided": true,
      "emissiveFactor": [
        1.0,
        1.0,
        1.0
      ],
      "emissiveTexture": {
        "index": 2
      },
      "name": "Color",
      "normalTexture": {
        "index": 3
      },
      "occlusionTexture": {
        "index": 1
      },
      "pbrMetallicRoughness": {
        "baseColorTexture": {
          "index": 0
        },
        "metallicRoughnessTexture": {
          "index": 1
        }
      }
    },
    {
      "doubleSided": true,
      "name": "Nocolor",
      "normalTexture": {
        "index": 6
      },
      "occlusionTexture": {
        "index": 5
      },
      "pbrMetallicRoughness": {
        "baseColorTexture": {
          "index": 4
        },
        "metallicRoughnessTexture": {
          "index": 5
        }
      }
    }
  ],
  "meshes": [
    {
      "name": "Object_0",
      "primitives": [
        {
          "attributes": {
            "NORMAL": 1,
            "POSITION": 0,
            "TANGENT": 2,
            "TEXCOORD_0": 3
          },
          "indices": 4,
          "material": 0,
          "mode": 4
        }
      ]
    },
    {
      "name": "Object_1",
      "primitives": [
        {
          "attributes": {
            "NORMAL": 6,
            "POSITION": 5,
            "TANGENT": 7,
            "TEXCOORD_0": 8
          },
          "indices": 9,
          "material": 1,
          "mode": 4
        }
      ]
    }
  ],
  "nodes": [
    {
      "children": [
        1
      ],
      "matrix": [
        1.0,
        0.0,
        0.0,
        0.0,
        0.0,
        2.220446049250313e-16,
        -1.0,
        0.0,
        0.0,
        1.0,
        2.220446049250313e-16,
        0.0,
        0.0,
        0.0,
        0.0,
        1.0
      ],
      "name": "Sketchfab_model"
    },
    {
      "children": [
        2,
        3
      ],
      "name": "LetrasNeonPintada.obj.cleaner.materialmerger.gles"
    },
    {
      "mesh": 0,
      "name": "Object_2"
    },
    {
      "mesh": 1,
      "name": "Object_3"
    }
  ],
  "samplers": [
    {
      "magFilter": 9729,
      "minFilter": 9987,
      "wrapS": 10497,
      "wrapT": 10497
    }
  ],
  "scene": 0,
  "scenes": [
    {
      "name": "Sketchfab_Scene",
      "nodes": [
        0
      ]
    }
  ],
  "textures": [
    {
      "sampler": 0,
      "source": 0
    },
    {
      "sampler": 0,
      "source": 1
    },
    {
      "sampler": 0,
      "source": 2
    },
    {
      "sampler": 0,
      "source": 3
    },
    {
      "sampler": 0,
      "source": 4
    },
    {
      "sampler": 0,
      "source": 5
    },
    {
      "sampler": 0,
      "source": 6
    }
  ]
}
