{
  "accessors": [
    {
      "bufferView": 2,
      "componentType": 5126,
      "count": 937,
      "max": [
        26.895549774169922,
        64.18731689453125,
        2.6895551681518555
      ],
      "min": [
        -26.895549774169922,
        -71.0834732055664,
        -0.7701923251152039
      ],
      "type": "VEC3"
    },
    {
      "bufferView": 2,
      "byteOffset": 11244,
      "componentType": 5126,
      "count": 937,
      "max": [
        1.0,
        1.0,
        1.0
      ],
      "min": [
        -1.0,
        -1.0,
        -1.0
      ],
      "type": "VEC3"
    },
    {
      "bufferView": 1,
      "componentType": 5126,
      "count": 937,
      "max": [
        1.852707862854004,
        0.9783267974853516
      ],
      "min": [
        -0.8527078628540039,
        0.07047736644744873
      ],
      "type": "VEC2"
    },
    {
      "bufferView": 0,
      "componentType": 5125,
      "count": 1164,
      "type": "SCALAR"
    },
    {
      "bufferView": 2,
      "byteOffset": 22488,
      "componentType": 5126,
      "count": 21744,
      "max": [
        25.94137191772461,
        63.21454620361328,
        3.3813958168029785
      ],
      "min": [
        -25.935531616210938,
        -63.22162628173828,
        1.522093653678894
      ],
      "type": "VEC3"
    },
    {
      "bufferView": 2,
      "byteOffset": 283416,
      "componentType": 5126,
      "count": 21744,
      "max": [
        1.0,
        1.0,
        1.0
      ],
      "min": [
        -1.0,
        -1.0,
        -1.0
      ],
      "type": "VEC3"
    },
    {
      "bufferView": 1,
      "byteOffset": 7496,
      "componentType": 5126,
      "count": 21744,
      "max": [
        1.732506513595581,
        0.971447229385376
      ],
      "min": [
        -0.7280721664428711,
        0.07727327942848206
      ],
      "type": "VEC2"
    },
    {
      "bufferView": 0,
      "byteOffset": 4656,
      "componentType": 5125,
      "count": 23496,
      "type": "SCALAR"
    },
    {
      "bufferView": 2,
      "byteOffset": 544344,
      "componentType": 5126,
      "count": 44,
      "max": [
        21.921249389648438,
        59.04795837402344,
        2.213639736175537
      ],
      "min": [
        -21.921249389648438,
        -69.53053283691406,
        -0.6112638711929321
      ],
      "type": "VEC3"
    },
    {
      "bufferView": 2,
      "byteOffset": 544872,
      "componentType": 5126,
      "count": 44,
      "max": [
        1.0,
        1.0,
        1.0
      ],
      "min": [
        -1.0,
        -1.0,
        -1.0
      ],
      "type": "VEC3"
    },
    {
      "bufferView": 1,
      "byteOffset": 181448,
      "componentType": 5126,
      "count": 44,
      "max": [
        0.9673441052436829,
        0.9419804811477661
      ],
      "min": [
        0.03265583515167236,
        0.10679003596305847
      ],
      "type": "VEC2"
    },
    {
      "bufferView": 0,
      "byteOffset": 98640,
      "componentType": 5125,
      "count": 48,
      "type": "SCALAR"
    }
  ],
  "asset": {
    "extras": {
      "author": "cebraVFX (https://sketchfab.com/intervirtual)",
      "license": "CC-BY-4.0 (http://creativecommons.org/licenses/by/4.0/)",
      "source": "https://sketchfab.com/3d-models/classical-mirror-ea28980a5c504f75a1b097023e468eae",
      "title": "Classical Mirror"
    },
    "generator": "Sketchfab-12.68.0",
    "version": "2.0"
  },
  "bufferViews": [
    {
      "buffer": 0,
      "byteLength": 98832,
      "name": "floatBufferViews",
      "target": 34963
    },
    {
      "buffer": 0,
      "byteLength": 181800,
      "byteOffset": 98832,
      "byteStride": 8,
      "name": "floatBufferViews",
      "target": 34962
    },
    {
      "buffer": 0,
      "byteLength": 545400,
      "byteOffset": 280632,
      "byteStride": 12,
      "name": "floatBufferViews",
      "target": 34962
    }
  ],
  "buffers": [
    {
      "byteLength": 826032,
      "uri": "scene.bin"
    }
  ],
  "images": [
    {
      "uri": "textures/Frame_baseColor.jpeg"
    }
  ],
  "materials": [
    {
      "doubleSided": true,
      "name": "Frame",
      "pbrMetallicRoughness": {
        "baseColorTexture": {
          "index": 0
        },
        "metallicFactor": 0.0,
        "roughnessFactor": 0.6
      }
    },
    {
      "doubleSided": true,
      "name": "Bench_Gold",
      "pbrMetallicRoughness": {
        "baseColorFactor": [
          0.0392157,
          0.01960779999999999,
          0.0117647,
          1.0
        ],
        "metallicFactor": 0.0,
        "roughnessFactor": 0.6
      }
    },
    {
      "doubleSided": true,
      "name": "Mirror",
      "pbrMetallicRoughness": {
        "baseColorFactor": [
          0.0,
          0.0,
          0.0,
          1.0
        ],
        "metallicFactor": 0.0,
        "roughnessFactor": 0.6
      }
    }
  ],
  "meshes": [
    {
      "name": "Object_0",
      "primitives": [
        {
          "attributes": {
            "NORMAL": 1,
            "POSITION": 0,
            "TEXCOORD_0": 2
          },
          "indices": 3,
          "material": 0,
          "mode": 4
        }
      ]
    },
    {
      "name": "Object_1",
      "primitives": [
        {
          "attributes": {
            "NORMAL": 5,
            "POSITION": 4,
            "TEXCOORD_0": 6
          },
          "indices": 7,
          "material": 1,
          "mode": 4
        }
      ]
    },
    {
      "name": "Object_2",
      "primitives": [
        {
          "attributes": {
            "NORMAL": 9,
            "POSITION": 8,
            "TEXCOORD_0": 10
          },
          "indices": 11,
          "material": 2,
          "mode": 4
        }
      ]
    }
  ],
  "nodes": [
    {
      "children": [
        1
      ],
      "matrix": [
        0.016777541488409042,
        0.0,
        0.0,
        0.0,
        0.0,
        3.7253625714071075e-18,
        -0.016777541488409042,
        0.0,
        0.0,
        0.016777541488409042,
        3.7253625714071075e-18,
        0.0,
        0.0,
        0.0,
        0.0,
        1.0
      ],
      "name": "Sketchfab_model"
    },
    {
      "children": [
        2
      ],
      "matrix": [
        1.0,
        0.0,
        0.0,
        0.0,
        0.0,
        0.0,
        1.0,
        0.0,
        0.0,
        -1.0,
        0.0,
        0.0,
        0.0,
        0.0,
        0.0,
        1.0
      ],
      "name": "accf9a5ddf4d4cb9bc39969739917698.fbx"
    },
    {
      "children": [
        3
      ],
      "name": "Object_2"
    },
    {
      "children": [
        4
      ],
      "name": "RootNode"
    },
    {
      "children": [
        5
      ],
      "name": "Mirror_01",
      "rotation": [
        -0.7071068286895752,
        -6.181724643283815e-08,
        -6.181724643283815e-08,
        0.7071068286895752
      ],
      "translation": [
        0.0,
        185.18179321289063,
        0.0
      ]
    },
    {
      "children": [
        6,
        7,
        8
      ],
      "matrix": [
        0.9999999999999847,
        -1.7484555286035915e-07,
        7.105427440541268e-15,
        0.0,
        -7.105427429834957e-15,
        6.123358230975587e-17,
        1.0,
        0.0,
        -1.7484555286035915e-07,
        -0.9999999999999847,
        6.123233995736766e-17,
        0.0,
        0.0,
        0.0,
        0.0,
        1.0
      ],
      "name": "Object_5"
    },
    {
      "mesh": 0,
      "name": "Object_6"
    },
    {
      "mesh": 1,
      "name": "Object_7"
    },
    {
      "mesh": 2,
      "name": "Object_8"
    }
  ],
  "samplers": [
    {
      "magFilter": 9729,
      "minFilter": 9987,
      "wrapS": 10497,
      "wrapT": 10497
    }
  ],
  "scene": 0,
  "scenes": [
    {
      "name": "Sketchfab_Scene",
      "nodes": [
        0
      ]
    }
  ],
  "textures": [
    {
      "sampler": 0,
      "source": 0
    }
  ]
}
